<?xml version="1.0" standalone="no"?>
<!DOCTYPE svg PUBLIC "-//W3C//DTD SVG 1.0//EN" "http://www.w3.org/TR/2001/REC-SVG-20010904/DTD/svg10.dtd">
<svg xmlns="http://www.w3.org/2000/svg" xmlns:xlink="http://www.w3.org/1999/xlink" id="body_1" width="30" height="30">

<g transform="matrix(0.6 0 0 0.6 0.09599992 -0)">
	<g>
		<g>
            <path d="M43.26 9L26.74 9C 25.359287 9 24.24 10.119288 24.24 11.5C 24.24 12.8807125 25.359287 14 26.74 14L26.74 14L43.260002 14C 43.67986 13.996322 44.07951 14.17995 44.350204 14.500914C 44.6209 14.821878 44.734467 15.246782 44.660004 15.66L44.660004 15.66L40.870003 33.83C 40.753178 34.506325 40.16634 35.000282 39.48 35L39.48 35L23.279999 35C 22.59366 35.00028 22.006823 34.506325 21.89 33.83L21.89 33.83L16.36 2C 16.130222 0.8352411 15.107203 -0.0032997131 13.92 0L13.92 0L2.5 0C 1.7280211 0.0005867481 0.9996121 0.3577845 0.5264753 0.9677789C 0.053338528 1.5777733 -0.11145139 2.3721378 0.08 3.12C 0.39271903 4.2568073 1.4414266 5.0330167 2.62 5L2.62 5L11.88 5L17 34.68C 17.531815 37.73842 20.175766 39.9782 23.28 40L23.28 40L39.480003 40C 42.599358 39.99754 45.265533 37.753227 45.800003 34.68L45.800003 34.68L49.590004 16.5C 49.90825 14.635173 49.387814 12.72491 48.16764 11.279211C 46.94747 9.833511 45.151787 8.999558 43.26 9z" stroke="none" fill="#932916" fill-rule="nonzero" />
            <path d="M36.38 23C 37.76071 23 38.88 21.880713 38.88 20.5C 38.88 19.119287 37.76071 18 36.38 18L36.38 18L28.380001 18C 27.486837 18 26.66152 18.476498 26.214937 19.25C 25.768356 20.023502 25.768356 20.976498 26.214937 21.75C 26.66152 22.523502 27.486837 23 28.380001 23L28.380001 23L36.38 23z" stroke="none" fill="#932916" fill-rule="nonzero" />
			<g>
                <path d="M27.88 46.5C 27.88 47.4665 27.538292 48.29146 26.854874 48.974873C 26.171455 49.658295 25.346498 50.000004 24.38 50C 23.413502 50.000004 22.588543 49.658295 21.905125 48.974873C 21.221708 48.29146 20.880001 47.4665 20.88 46.5C 20.880001 45.5335 21.221708 44.70854 21.905125 44.025127C 22.588543 43.341713 23.413502 43 24.38 43C 25.346498 43 26.171455 43.341713 26.854874 44.025127C 27.538292 44.70854 27.88 45.5335 27.88 46.5C 27.88 46.54073 27.879288 46.581444 27.877867 46.622147" stroke="none" fill="#63803A" fill-rule="nonzero" />
                <path d="M41.88 46.5C 41.880005 47.4665 41.538292 48.29146 40.854874 48.974873C 40.17146 49.658295 39.3465 50.000004 38.38 50C 37.4135 50.000004 36.588547 49.658295 35.90513 48.974873C 35.22171 48.29146 34.88 47.4665 34.88 46.5C 34.88 45.5335 35.22171 44.70854 35.90513 44.025127C 36.588547 43.341713 37.4135 43 38.38 43C 39.3465 43 40.17146 43.341713 40.854874 44.025127C 41.538292 44.70854 41.880005 45.5335 41.88 46.5C 41.880005 46.54073 41.87929 46.581444 41.87787 46.622147" stroke="none" fill="#63803A" fill-rule="nonzero" />
                <path d="M36.88 28.5C 36.88 27.119287 35.76071 26 34.38 26L34.38 26L29.380001 26C 28.486837 26 27.66152 26.476498 27.214937 27.25C 26.768356 28.023502 26.768356 28.976498 27.214937 29.75C 27.66152 30.523502 28.486837 31 29.380001 31L29.380001 31L34.38 31C 35.76071 31 36.88 29.880713 36.88 28.5z" stroke="none" fill="#63803A" fill-rule="nonzero" />
			</g>
		</g>
	</g>
</g>
</svg>