<?xml version="1.0" standalone="no"?>
<!DOCTYPE svg PUBLIC "-//W3C//DTD SVG 1.0//EN" "http://www.w3.org/TR/2001/REC-SVG-20010904/DTD/svg10.dtd">
<svg xmlns="http://www.w3.org/2000/svg" xmlns:xlink="http://www.w3.org/1999/xlink" id="body_1" width="64" height="48">

<g transform="matrix(0.093749456 0 0 0.093749456 8 -0)">
	<g>
		<g>
            <path d="M378.958 217.879C 375.048 213.969 368.71802 213.969 364.808 217.879C 360.90802 221.77899 360.90802 228.109 364.808 232.019C 368.71802 235.929 375.048 235.929 378.958 232.019C 382.859 228.109 382.859 221.779 378.958 217.879z" stroke="none" fill="#63803a" fill-rule="nonzero" />
		</g>
	</g>
	<g>
		<g>
            <path d="M503.161 65.389L446.589 8.818C 434.865 -2.9040003 415.892 -2.908 404.166 8.818L404.166 8.818L386.026 26.958C 378.588 34.396 375.741 44.869 377.985 54.821L377.985 54.821L295.973 69.292C 277.68298 72.529 261.08798 81.173996 247.98799 94.285995L247.98799 94.285995L230.456 111.808C 218.90999 123.354 214.20499 139.189 216.33499 154.232C 201.18 152.092 185.47699 156.797 173.89699 168.37599C 162.33398 179.93199 157.60599 195.622 159.745 210.80899C 144.596 208.678 128.897 213.37698 117.326 224.948C 106.091995 236.18199 100.975 251.737 103.185 267.397C 88.14 265.265 72.304 269.97 60.755997 281.517L60.755997 281.517L20.464996 321.798C -6.8220043 349.087 -6.823004 393.499 20.465996 420.801L20.465996 420.801L91.17799 491.512C 118.47499 518.796 162.884 518.803 190.18 491.50998L190.18 491.50998L230.45898 451.21997C 242.00699 439.67197 246.71199 423.83298 244.57799 408.787C 260.16898 410.986 275.75098 405.92798 287.02798 394.651C 298.572 383.107 303.27597 367.272 301.145 352.226C 316.65298 354.41602 332.259 349.432 343.599 338.08102C 355.144 326.536 359.848 310.70303 357.718 295.661C 373.373 297.871 388.93198 292.758 400.172 281.518L400.172 281.518L417.687 263.99402C 430.80502 250.88802 439.449 234.29202 442.686 215.99701L442.686 215.99701L457.156 133.992C 467.08902 136.231 477.566 133.405 485.02002 125.951004L485.02002 125.951004L503.16003 107.811005C 514.885 96.087 514.887 77.114 503.161 65.389zM216.316 437.078L176.03699 477.367C 156.54498 496.86002 124.818985 496.859 105.318985 477.367L105.318985 477.367L34.61 406.66C 15.117001 387.158 15.117001 355.433 34.608 335.941L34.608 335.941L74.899 295.66C 86.596 283.962 105.629 283.962 117.327 295.66L117.327 295.66L216.317 394.649C 228.015 406.347 228.015 425.38 216.316 437.078zM272.885 380.508C 261.19302 392.19998 242.199 392.249 230.45801 380.508L230.45801 380.508L131.46802 281.518C 119.74702 269.79602 119.74402 250.815 131.46902 239.09C 143.18202 227.37599 162.15002 227.372 173.88803 239.083C 173.89104 239.086 173.89304 239.088 173.89603 239.09099L173.89603 239.09099L272.88202 338.076L272.88303 338.077C 272.88303 338.077 272.88303 338.077 272.88303 338.078C 284.578 349.781 284.58 368.814 272.885 380.508zM329.453 323.942C 317.742 335.667 298.746 335.66898 287.029 323.938L287.029 323.938L188.036 224.94598C 176.308 213.22598 176.302 194.24799 188.039 182.51999C 199.768 170.79099 218.726 170.78899 230.457 182.51999L230.457 182.51999L329.457 281.52C 341.153 293.214 341.153 312.243 329.453 323.942zM422.991 212.518C 420.473 226.74701 413.751 239.655 403.54498 249.85101L403.54498 249.85101L386.02698 267.37802C 374.33 279.07602 355.29697 279.07602 343.59897 267.37802L343.59897 267.37802L244.59897 168.37802C 232.90196 156.68002 232.90196 137.64803 244.59697 125.95203L244.59697 125.95203L262.13196 108.427025C 272.32196 98.22703 285.23096 91.50502 299.45395 88.98702L299.45395 88.98702L389.70795 73.06202L438.91495 122.27002L422.991 212.518zM489.018 93.669L470.878 111.809C 466.97 115.715996 460.649 115.716995 456.74 111.809L456.74 111.809L400.16998 55.238C 396.26297 51.329 396.262 45.009 400.171 41.1L400.171 41.1L418.31097 22.96C 422.21997 19.051998 428.541 19.053 432.44897 22.96L432.44897 22.96L489.01797 79.531C 492.919 83.433 492.933 89.752 489.018 93.669z" stroke="none" fill="#63803a" fill-rule="nonzero" />
		</g>
	</g>
	<g>
		<g>
            <path d="M505.415 378.782L460.855 291.483C 459.146 288.13602 455.70602 286.029 451.948 286.029C 448.19 286.029 444.75 288.136 443.041 291.483L443.041 291.483L398.48398 378.778C 378.23196 418.39902 407.09097 466.02902 451.94797 466.02902C 496.797 466.029 525.666 418.407 505.415 378.782zM451.948 446.029C 422.014 446.029 402.82 414.23898 416.296 387.875L416.296 387.875L451.948 318.025L487.603 387.879C 501.062 414.214 481.911 446.029 451.948 446.029z" stroke="none" fill="#63803a" fill-rule="nonzero" />
		</g>
	</g>
	<g>
		<g>
            <path d="M350.671 189.588L302.391 141.308C 298.485 137.403 292.155 137.403 288.248 141.308C 284.343 145.213 284.343 151.545 288.248 155.45L288.248 155.45L336.52798 203.73C 340.434 207.635 346.76398 207.635 350.671 203.73C 354.576 199.824 354.576 193.493 350.671 189.588z" stroke="none" fill="#63803a" fill-rule="nonzero" />
		</g>
	</g>
	<g>
	</g>
	<g>
	</g>
	<g>
	</g>
	<g>
	</g>
	<g>
	</g>
	<g>
	</g>
	<g>
	</g>
	<g>
	</g>
	<g>
	</g>
	<g>
	</g>
	<g>
	</g>
	<g>
	</g>
	<g>
	</g>
	<g>
	</g>
	<g>
	</g>
</g>
</svg>