<?xml version="1.0" standalone="no"?>
<!DOCTYPE svg PUBLIC "-//W3C//DTD SVG 1.0//EN" "http://www.w3.org/TR/2001/REC-SVG-20010904/DTD/svg10.dtd">
<svg xmlns="http://www.w3.org/2000/svg" xmlns:xlink="http://www.w3.org/1999/xlink" id="body_1" width="50" height="50">

<g transform="matrix(0.09765625 0 0 0.09765625 0 0)">
    <path d="M448 16L371.8 16C 361.3 16 352 22.7 348.6 32.6L348.6 32.6L316.1 128L197 128C 189.8 128 184 133.8 184 141L184 141L184 240L184 324.7L73.8001 434.9L56.8001 451.9C 53.7001 455 53.7001 460.1 56.8001 463.2C 78.0001 484.3 106.1 496 136 496C 153 496 169.3 492.3 184.2 485.2C 184.2 485.4 184.2 485.5 184.3 485.7C 185.5 491.6 190.8 496.1 197 496.1L197 496.1L363 496.1C 369.3 496.1 374.5 491.6 375.7 485.7C 375.9 484.9 376 484 376 483.1L376 483.1L376 456.1L376 240L376 141C 376 133.8 370.2 128 363 128L363 128L333 128L363.8 37.8C 365 34.3 368.2 32 371.9 32L371.9 32L448 32C 452.4 32 456 28.4 456 24C 456 19.6 452.4 16 448 16zM310.6 144L280.6 232L200 232L200 144L310.6 144zM360 448L227.9 448C 240.9 429.4 248 407.2 248 384C 248 354.1 236.4 326 215.2 304.8C 212.1 301.7 207 301.7 203.9 304.8L203.9 304.8L200 308.7L200 248L286.3 248L360 248L360 448zM144 403.3L180.9 440.2C 170.3 448.7 157.5 454 144 455.5L144 455.5L144 403.3zM192.2 428.9L155.3 392L207.5 392C 206.1 405.6 200.8 418.3 192.2 428.9zM155.3 376L192.2 339.1C 200.7 349.7 206 362.5 207.5 376L207.5 376L155.3 376zM128 403.3L128 455.5C 114.4 454 101.7 448.8 91.1001 440.2L91.1001 440.2L128 403.3zM74.0001 457.3L79.7001 451.6C 95.5001 464.8 115.2 472 136 472C 159.5 472 181.6 462.8 198.2 446.2C 230.6 413.8 232.4 362.2 203.6 327.7L203.6 327.7L209.3 322C 224 339.3 232 361 232 384C 232 408.9 222.6 432.4 205.4 450.3C 204.9 450.8 204.4 451.3 203.9 451.8C 199 456.7 193.7 461 188 464.7C 187.8 464.8 187.6 465 187.4 465.1C 172.2 474.8 154.5 479.9 136.1 479.9C 113 480 91.3001 472 74.0001 457.3zM360 480L200 480L200 475.9C 205.1 472.4 209.9 468.4 214.4 464L214.4 464L360 464L360 480zM360 144L360 232L297.5 232L327.5 144L360 144z" stroke="none" fill="#63803a" fill-rule="nonzero" />
    <path d="M336 384C 340.4 384 344 380.4 344 376L344 376L344 272C 344 267.6 340.4 264 336 264C 331.6 264 328 267.6 328 272L328 272L328 376C 328 380.4 331.6 384 336 384z" stroke="none" fill="#63803a" fill-rule="nonzero" />
    <path d="M336 432C 340.4 432 344 428.4 344 424L344 424L344 408C 344 403.6 340.4 400 336 400C 331.6 400 328 403.6 328 408L328 408L328 424C 328 428.4 331.6 432 336 432z" stroke="none" fill="#63803a" fill-rule="nonzero" />
</g>
</svg>