<?xml version="1.0" standalone="no"?>
<!DOCTYPE svg PUBLIC "-//W3C//DTD SVG 1.0//EN" "http://www.w3.org/TR/2001/REC-SVG-20010904/DTD/svg10.dtd">
<svg xmlns="http://www.w3.org/2000/svg" xmlns:xlink="http://www.w3.org/1999/xlink" id="body_1" width="64" height="48">

<g transform="matrix(1.5 0 0 1.5 8.000002 -0)">
    <path d="M1.06 29.897C 1.071 29.897 1.083 29.897 1.094 29.896C 1.5999999 29.879 1.9189999 29.487 1.9619999 28.983C 1.9959999 28.612 2.9919999 19.636 17.001 19.646L17.001 19.646L17.032 25.385C 17.032 25.772 17.255 26.124 17.605 26.289C 17.952 26.455 18.369 26.404 18.666 26.157L18.666 26.157L31.634 15.414C 31.866001 15.224 32 14.938999 31.999 14.639999C 31.998001 14.339999 31.863 14.056 31.631 13.867L31.631 13.867L18.664 3.224C 18.365 2.98 17.952 2.933 17.604 3.096C 17.255 3.2619998 17.033 3.6139998 17.033 3.999L17.033 3.999L17.002 9.6119995C 11.190001 9.797 6.6900005 11.665999 3.7720013 15.08C -0.9759989 20.636 0.0840013 28.71 0.13300133 29.046C 0.207 29.536 0.566 29.897 1.06 29.897zM18.032 17.63C 18.031 17.63 18.029999 17.63 18.029999 17.63C 8.023 17.636 4.199 21.015 2.016 23.999C 2.335 21.608 3.2680001 18.727001 5.297 16.373001C 7.995 13.245001 12.342 11.597001 18.032 11.597001C 18.585 11.597001 19.032 11.150002 19.032 10.597001L19.032 10.597001L19.032 6.104L29.421 14.646L19.032 23.268L19.032 18.63C 19.032 18.363998 18.927 18.109 18.737999 17.921999C 18.551 17.735 18.297 17.63 18.032 17.63z" stroke="none" fill="rgba(42, 32, 20, 0.5)" fill-rule="nonzero" />
	<g>
	</g>
	<g>
	</g>
	<g>
	</g>
	<g>
	</g>
	<g>
	</g>
	<g>
	</g>
</g>
</svg>