<?xml version="1.0" encoding="UTF-8" standalone="no"?> <svg width="55" height="55" viewBox="0 0 64 64" fill="none" xmlns="http://www.w3.org/2000/svg">
<path d="M48 3H16C14.6739 3 13.4021 3.52678 12.4645 4.46447C11.5268 5.40215 11 6.67392 11 8V56C11 57.3261 11.5268 58.5979 12.4645 59.5355C13.4021 60.4732 14.6739 61 16 61H48C49.3261 61 50.5979 60.4732 51.5355 59.5355C52.4732 58.5979 53 57.3261 53 56V8C53 6.67392 52.4732 5.40215 51.5355 4.46447C50.5979 3.52678 49.3261 3 48 3V3ZM51 56C51 56.7956 50.6839 57.5587 50.1213 58.1213C49.5587 58.6839 48.7956 59 48 59H16C15.2044 59 14.4413 58.6839 13.8787 58.1213C13.3161 57.5587 13 56.7956 13 56V8C13 7.20435 13.3161 6.44129 13.8787 5.87868C14.4413 5.31607 15.2044 5 16 5H48C48.7956 5 49.5587 5.31607 50.1213 5.87868C50.6839 6.44129 51 7.20435 51 8V56Z" fill="#63803a"/>
<path d="M48 7.60999H16C15.7348 7.60999 15.4804 7.71534 15.2929 7.90288C15.1054 8.09041 15 8.34477 15 8.60998V53.61C15 53.8752 15.1054 54.1296 15.2929 54.3171C15.4804 54.5046 15.7348 54.61 16 54.61H48C48.2652 54.61 48.5196 54.5046 48.7071 54.3171C48.8946 54.1296 49 53.8752 49 53.61V8.60998C49 8.34477 48.8946 8.09041 48.7071 7.90288C48.5196 7.71534 48.2652 7.60999 48 7.60999V7.60999ZM47 52.61H17V9.60998H47V52.61Z" fill="#63803a"/>
<path d="M28.16 30.27C28.8923 30.8271 29.7803 31.1417 30.7 31.17C31.1462 31.1697 31.588 31.0814 32 30.91C32.412 31.0814 32.8537 31.1697 33.3 31.17C34.2197 31.1417 35.1076 30.8271 35.84 30.27C38.0471 28.4993 39.5274 25.9799 40 23.19C40.55 19.49 38.34 15.96 35.07 15.31C34.4904 15.1936 33.8952 15.1767 33.31 15.26C33.5518 14.7715 33.9252 14.3601 34.388 14.0722C34.8509 13.7842 35.3849 13.6311 35.93 13.63C36.1952 13.63 36.4495 13.5246 36.6371 13.3371C36.8246 13.1496 36.93 12.8952 36.93 12.63C36.93 12.3648 36.8246 12.1104 36.6371 11.9229C36.4495 11.7354 36.1952 11.63 35.93 11.63C34.8328 11.6309 33.7675 11.9984 32.9032 12.6743C32.0389 13.3501 31.4253 14.2954 31.16 15.36C30.4185 15.1999 29.6514 15.1999 28.91 15.36C25.64 16.01 23.43 19.54 23.98 23.24C24.4692 26.0147 25.9558 28.5149 28.16 30.27V30.27ZM29.31 17.27C30.0713 17.1202 30.861 17.233 31.55 17.59C31.6925 17.6494 31.8455 17.68 32 17.68C32.1544 17.68 32.3074 17.6494 32.45 17.59C33.1423 17.2323 33.9353 17.1195 34.7 17.27C36.93 17.72 38.43 20.27 38.04 22.9C37.6349 25.1484 36.4484 27.1814 34.69 28.64C34.4619 28.8319 34.197 28.9753 33.9115 29.0613C33.6261 29.1472 33.3261 29.174 33.03 29.14C32.7189 28.9531 32.3628 28.8544 32 28.8544C31.6371 28.8544 31.281 28.9531 30.97 29.14C30.6738 29.1746 30.3736 29.1481 30.0881 29.0621C29.8026 28.9761 29.5377 28.8324 29.31 28.64C27.5697 27.1723 26.3986 25.1414 26 22.9C25.57 20.24 27.07 17.72 29.31 17.27Z" fill="#63803a"/>
<path d="M23.06 39.45C23.2474 39.6363 23.5008 39.7408 23.765 39.7408C24.0292 39.7408 24.2826 39.6363 24.47 39.45L28.54 35.38C28.6337 35.287 28.7081 35.1764 28.7589 35.0546C28.8096 34.9327 28.8358 34.802 28.8358 34.67C28.8358 34.538 28.8096 34.4073 28.7589 34.2854C28.7081 34.1636 28.6337 34.053 28.54 33.96C28.3526 33.7738 28.0992 33.6692 27.835 33.6692C27.5708 33.6692 27.3174 33.7738 27.13 33.96L23.77 37.33L22.67 36.24C22.4787 36.0762 22.2326 35.9906 21.9809 36.0003C21.7293 36.01 21.4905 36.1144 21.3124 36.2924C21.1343 36.4705 21.03 36.7093 21.0203 36.961C21.0106 37.2126 21.0962 37.4587 21.26 37.65L23.06 39.45Z" fill="#63803a"/>
<path d="M29.21 37.21C29.21 37.4752 29.3153 37.7296 29.5029 37.9171C29.6904 38.1046 29.9447 38.21 30.21 38.21H42.64C42.9052 38.21 43.1595 38.1046 43.3471 37.9171C43.5346 37.7296 43.64 37.4752 43.64 37.21C43.64 36.9448 43.5346 36.6904 43.3471 36.5029C43.1595 36.3153 42.9052 36.21 42.64 36.21H30.21C29.9447 36.21 29.6904 36.3153 29.5029 36.5029C29.3153 36.6904 29.21 36.9448 29.21 37.21Z" fill="#63803a"/>
<path d="M23.0599 47.06C23.1533 47.1527 23.2642 47.226 23.386 47.2758C23.5078 47.3255 23.6383 47.3508 23.7699 47.35C24.0323 47.3489 24.2836 47.2448 24.4699 47.06L28.5399 43C28.6336 42.907 28.708 42.7964 28.7588 42.6746C28.8096 42.5527 28.8357 42.422 28.8357 42.29C28.8357 42.158 28.8096 42.0273 28.7588 41.9054C28.708 41.7836 28.6336 41.673 28.5399 41.58C28.3525 41.3938 28.0991 41.2892 27.8349 41.2892C27.5707 41.2892 27.3173 41.3938 27.1299 41.58L23.7699 44.95L22.6699 43.85C22.4825 43.6638 22.2291 43.5592 21.9649 43.5592C21.7007 43.5592 21.4473 43.6638 21.2599 43.85C21.1662 43.943 21.0918 44.0536 21.041 44.1754C20.9903 44.2973 20.9641 44.428 20.9641 44.56C20.9641 44.692 20.9903 44.8227 21.041 44.9446C21.0918 45.0664 21.1662 45.177 21.2599 45.27L23.0599 47.06Z" fill="#63803a"/>
<path d="M42.64 43.82H30.21C29.9447 43.82 29.6904 43.9254 29.5029 44.1129C29.3153 44.3004 29.21 44.5548 29.21 44.82C29.21 45.0852 29.3153 45.3396 29.5029 45.5271C29.6904 45.7147 29.9447 45.82 30.21 45.82H42.64C42.9052 45.82 43.1595 45.7147 43.3471 45.5271C43.5346 45.3396 43.64 45.0852 43.64 44.82C43.64 44.5548 43.5346 44.3004 43.3471 44.1129C43.1595 43.9254 42.9052 43.82 42.64 43.82Z" fill="#63803a"/>
</svg>
