<?xml version="1.0" standalone="no"?>
<!DOCTYPE svg PUBLIC "-//W3C//DTD SVG 1.0//EN" "http://www.w3.org/TR/2001/REC-SVG-20010904/DTD/svg10.dtd">
<svg xmlns="http://www.w3.org/2000/svg" xmlns:xlink="http://www.w3.org/1999/xlink" id="body_1" width="40" height="40">

<g transform="matrix(0.625 0 0 0.625 0 0)">
    <path d="M33.1198 11C 32.9751 10.8487 32.8012 10.7284 32.6087 10.6461C 32.4162 10.5639 32.2091 10.5215 31.9998 10.5215C 31.7904 10.5215 31.5833 10.5639 31.3908 10.6461C 31.1983 10.7284 31.0245 10.8487 30.8798 11C 30.2598 11.7 15.5098 28.25 15.5098 37C 16.4098 58.87 47.5898 58.87 48.5098 37C 48.4898 28.25 33.7398 11.7 33.1198 11zM31.9998 50.5C 28.4211 50.4973 24.9899 49.0739 22.4603 46.5424C 19.9307 44.0109 18.5098 40.5787 18.5098 37C 18.5098 31.2 27.3998 19.63 31.9998 14.27C 36.5998 19.64 45.4898 31.21 45.4898 37C 45.4898 40.5787 44.0688 44.0109 41.5392 46.5424C 39.0097 49.0739 35.5785 50.4973 31.9998 50.5z" stroke="none" fill="#63803a" />
    <path d="M32 44C 30.1435 44 28.363 43.2625 27.0503 41.9497C 25.7375 40.637 25 38.8565 25 37C 25 36.6022 24.842 36.2206 24.5607 35.9393C 24.2794 35.658 23.8978 35.5 23.5 35.5C 23.1022 35.5 22.7206 35.658 22.4393 35.9393C 22.158 36.2206 22 36.6022 22 37C 22 39.6522 23.0536 42.1957 24.9289 44.0711C 26.8043 45.9464 29.3478 47 32 47C 32.3978 47 32.7794 46.842 33.0607 46.5607C 33.342 46.2794 33.5 45.8978 33.5 45.5C 33.5 45.1022 33.342 44.7206 33.0607 44.4393C 32.7794 44.158 32.3978 44 32 44z" stroke="none" fill="#63803a" />
</g>
</svg>